# xmcd
#
# Track frame offsets:
#	150
#	15619
#	34160
#	48694
#	59058
#	72645
#	94270
#	111666
#	128610
#	159977
#
# Disc length: 2425 seconds
#
# Revision: 0
# Processed by: cddbd v1.5.2PL0 Copyright (c) Steve Scherf et al.
# Submitted via: dBpowerAMP V4.0
#
DISCID=9309770a
DTITLE=Matt Epp - Orphan Horse
DYEAR=2008
DGENRE=roots rock
TTITLE0=She's High Water
TTITLE1=Orphan Horse
TTITLE2=Junction City
TTITLE3=My Love will Come
TTITLE4=Come Clean
TTITLE5=You Should Know
TTITLE6=The Mom Song
TTITLE7=Sophia
TTITLE8=Love is a camel
TTITLE9=Falling is easy
EXTD=
EXTT0=
EXTT1=
EXTT2=
EXTT3=
EXTT4=
EXTT5=
EXTT6=
EXTT7=
EXTT8=
EXTT9=
PLAYORDER=
